<?xml version="1.0" standalone="no"?><!DOCTYPE svg PUBLIC "-//W3C//DTD SVG 1.1//EN"
  "http://www.w3.org/Graphics/SVG/1.1/DTD/svg11.dtd">
<svg t="1543543722592" class="icon" style="" viewBox="0 0 1024 1024" version="1.1" xmlns="http://www.w3.org/2000/svg"
     p-id="8133" xmlns:xlink="http://www.w3.org/1999/xlink" width="64" height="64">
  <defs>
    <style type="text/css"></style>
  </defs>
  <path
    d="M945.230769 354.461538h-78.769231V157.538462h-196.923076V78.769231h275.692307v275.692307zM157.538462 354.461538H78.769231V78.769231h275.692307v78.769231H157.538462v196.923076zM945.230769 945.230769h-275.692307v-78.769231h196.923076v-196.923076h78.769231v275.692307zM354.461538 945.230769H78.769231v-275.692307h78.769231v196.923076h196.923076v78.769231z"
    p-id="8134"></path>
  <path
    d="M143.675077 171.52l27.844923-27.844923 236.425846 236.465231-27.844923 27.844923zM616.290462 644.135385l27.844923-27.844923 236.46523 236.46523-27.844923 27.844923zM143.872 852.283077l236.425846-236.425846 27.884308 27.844923-236.465231 236.425846zM616.487385 380.061538l236.425846-236.46523 27.884307 27.844923-236.46523 236.425846z"
    p-id="8135"></path>
</svg>
