<?xml version="1.0" standalone="no"?><!DOCTYPE svg PUBLIC "-//W3C//DTD SVG 1.1//EN" "http://www.w3.org/Graphics/SVG/1.1/DTD/svg11.dtd"><svg t="1543543128908" class="icon" style="" viewBox="0 0 1024 1024" version="1.1" xmlns="http://www.w3.org/2000/svg" p-id="7833" xmlns:xlink="http://www.w3.org/1999/xlink" width="64" height="64"><defs><style type="text/css"></style></defs><path d="M0.068267 0" p-id="7834"></path><path d="M1024.068267 921.2928L921.406578 1024H801.006933L1024.068267 800.938667v120.354133zM614.877867 1024L1024.068267 614.741333v120.388267L735.266133 1024H614.877867z m-186.1632 0L1024.068267 428.544v120.388267L549.000533 1024H428.714667z m-186.197334 0L1024.068267 242.3808v120.354133L362.837333 1024H242.517333zM56.285867 1024L1024.068267 56.183467v120.32L176.674133 1023.965867 56.285867 1024zM0.068267 149.265067L149.367467 0H269.7216L0.068267 269.6192V149.265067z m0 186.197333L335.598933 0h120.354134L0.068267 455.816533V335.4624zM642.161778 0L0.068267 642.013867V521.693867L521.739378 0.034133 642.161778 0z m186.151822 0L0.068267 828.2112V707.8912L707.925333 0.034133 828.279467 0h0.034133zM0.068267 893.986133L894.088533 0h120.354134L0 1014.3744 0.068267 893.986133zM83.592533 0L0.068267 83.387733V0h83.524266z m903.68 1024l36.864-36.864V1024h-36.864z" p-id="7835"></path></svg>